<?xml version="1.0" encoding="UTF-8"?>
<svg width="128px" height="128px" viewBox="0 0 128 128" version="1.1" xmlns="http://www.w3.org/2000/svg" xmlns:xlink="http://www.w3.org/1999/xlink">
    <!-- Generator: Sketch 42 (36781) - http://www.bohemiancoding.com/sketch -->
    <title>logo</title>
    <desc>Created with Sketch.</desc>
    <defs>
        <polygon id="path-1" points="63.8410955 0.368432432 0 0.368432432 0 125.117117 63.8410955 125.117117 127.682191 125.117117 127.682191 0.368432432 63.8410955 0.368432432"></polygon>
    </defs>
    <g id="Page-1" stroke="none" stroke-width="1" fill="none" fill-rule="evenodd">
        <g id="logo">
            <g id="Group-3" transform="translate(0.000000, 1.000000)">
                <mask id="mask-2" fill="white">
                    <use xlink:href="#path-1"></use>
                </mask>
                <g id="Clip-2"></g>
                <path d="M58.1516685,85.3921441 C58.1516685,87.7820541 60.6989838,89.7193514 63.8413261,89.7193514 C66.9830919,89.7193514 69.5304072,87.7820541 69.5304072,85.3921441 C69.5304072,83.0022342 66.9830919,81.0649369 63.8413261,81.0649369 C60.6989838,81.0649369 58.1516685,83.0022342 58.1516685,85.3921441 M63.8361369,66.506955 C68.0906955,66.5086847 71.8274883,67.8296216 75.2108396,69.4711351 C73.8801009,67.4052613 73.1905153,63.7416937 73.1905153,60.0988829 C73.1905153,54.5971892 74.7530378,49.0274595 77.7402811,49.0274595 C80.7269477,49.0274595 82.2900468,54.5971892 82.2900468,60.0988829 C82.2900468,65.2315676 80.928173,70.4196036 78.3203171,71.0924685 C78.8340468,71.3744144 79.3408577,71.6569369 79.8390198,71.9354234 C83.6571099,74.0693333 87.2647495,76.0844685 90.8539387,76.0844685 L91.3359568,76.0827387 C91.511236,76.0827387 91.650191,76.0879279 91.680173,76.0902342 C96.4386595,76.4286847 101.8752,72.4998919 102.094299,66.5230991 L102.105254,66.2284685 C102.141578,65.2569369 102.149074,65.0816577 102.060858,64.0196036 C100.76529,48.251964 84.6736144,35.3983423 65.4269117,34.7571892 C64.8901189,34.7375856 62.7815784,34.7375856 62.2493982,34.7571892 C42.9998126,35.3983423 26.9081369,48.251964 25.6119928,64.0196036 C25.5249297,65.0816577 25.5312721,65.2569369 25.568173,66.2284685 L25.5791279,66.5230991 C25.798227,72.4998919 31.2359207,76.4252252 35.9932541,76.0902342 C36.023236,76.0879279 36.162191,76.0827387 36.3374703,76.0827387 L36.7497225,76.0844685 L36.7502991,76.0844685 C40.4098306,76.0844685 44.0163171,74.0687568 47.8344072,71.9354234 C48.3337225,71.6563604 48.8422631,71.3738378 49.3565694,71.0901622 C46.752173,70.4121081 45.3926054,65.2281081 45.3926054,60.0983063 C45.3926054,54.5971892 46.9551279,49.0274595 49.9417946,49.0274595 C52.9290378,49.0274595 54.4915604,54.5971892 54.4915604,60.0983063 C54.4915604,63.7388108 53.8031279,67.3983423 52.4746955,69.4647928 C55.8545874,67.8261622 59.5873441,66.5086847 63.8361369,66.506955 M77.6635964,75.8296216 C73.1893622,73.3301622 68.9630559,70.9690811 63.8361369,70.9673514 C58.7103712,70.9690811 54.4840649,73.3301622 50.0098306,75.8296216 C45.8607856,78.1474595 41.5704793,80.5448649 36.8189117,80.5448649 C36.8189117,80.5448649 35.6945874,80.5708108 35.4155243,80.5708108 C28.7583712,80.5708108 21.4266234,74.9924324 21.1216144,66.6868468 L21.111236,66.3962523 C21.0691459,65.275964 21.062227,64.9305946 21.1665874,63.6534775 C22.6697225,45.3667748 40.2662631,31.0273153 62.0983351,30.2985225 C62.677218,30.2794955 64.9944793,30.2783423 65.5779748,30.2996757 C87.407164,31.0273153 105.003705,45.3667748 106.506263,63.6534775 C106.611777,64.9305946 106.604858,65.275964 106.562191,66.3962523 L106.551236,66.6868468 C106.246804,74.9924324 98.9144793,80.5708108 92.2573261,80.5708108 L92.2573261,80.5708108 C91.9794162,80.5708108 91.7015063,80.5621622 91.4247495,80.5437117 L91.3359568,80.5431351 L90.8539387,80.5448649 C86.1029477,80.5448649 81.8126414,78.1474595 77.6635964,75.8296216 M124.560029,71.7278559 C122.835488,71.7278559 121.437867,73.1266306 121.437867,74.850018 C121.437867,99.1238919 95.6003171,118.872793 63.8407495,118.872793 C32.0823351,118.872793 6.24420901,99.1238919 6.24420901,74.850018 C6.24420901,73.1266306 4.84601081,71.7278559 3.12204685,71.7278559 C1.39750631,71.7278559 -0.000115315315,73.1266306 -0.000115315315,74.850018 C-0.000115315315,102.567784 28.6390198,125.117117 63.8407495,125.117117 C99.0430559,125.117117 127.682191,102.567784 127.682191,74.850018 C127.682191,73.1266306 126.284569,71.7278559 124.560029,71.7278559 M3.68017297,5.67120721 L60.6597766,5.67120721 L60.6597766,3.54998198 C60.6597766,1.79315315 62.0839207,0.368432432 63.8407495,0.368432432 C65.5987315,0.368432432 67.0228757,1.79315315 67.0228757,3.54998198 L67.0228757,5.67120721 L124.002479,5.67120721 C125.573074,5.67120721 125.811777,7.93081081 124.27693,8.26003604 L67.0228757,13.9785225 L67.0228757,17.0459099 C96.3048937,18.3524324 119.622227,37.5541622 119.622227,60.977009 C119.622227,62.7015495 118.223452,64.0991712 116.500065,64.0991712 C114.774948,64.0991712 113.377903,62.7015495 113.377903,60.977009 C113.377903,40.2807928 91.4212901,23.4268829 64.3342991,23.2233514 C64.1722811,23.2487207 64.0096865,23.2729369 63.8407495,23.2729369 C63.6723892,23.2729369 63.5097946,23.2487207 63.3477766,23.2233514 C36.2607856,23.4268829 14.3047495,40.2807928 14.3047495,60.977009 C14.3047495,62.7015495 12.9065514,64.0991712 11.1825874,64.0991712 C9.45804685,64.0991712 8.0610018,62.7015495 8.0610018,60.977009 C8.0610018,37.5541622 31.377182,18.3524324 60.6597766,17.0459099 L60.6597766,13.9664144 L3.40572252,8.26003604 C1.87087568,7.93081081 2.11015495,5.67120721 3.68017297,5.67120721" id="Fill-1" fill="#FFFFFF" mask="url(#mask-2)"></path>
            </g>
        </g>
    </g>
</svg>